<svg width="32" height="45" viewBox="0 0 32 45" fill="none" xmlns="http://www.w3.org/2000/svg">
<path d="M4 13L16 1L28 13M7 10.75V23.5C7 23.8978 7.15804 24.2794 7.43934 24.5607C7.72064 24.842 8.10218 25 8.5 25H13V20.5C13 20.1022 13.158 19.7206 13.4393 19.4393C13.7206 19.158 14.1022 19 14.5 19H17.5C17.8978 19 18.2794 19.158 18.5607 19.4393C18.842 19.7206 19 20.1022 19 20.5V25H23.5C23.8978 25 24.2794 24.842 24.5607 24.5607C24.842 24.2794 25 23.8978 25 23.5V10.75" stroke="#383838" stroke-width="2" stroke-linecap="round" stroke-linejoin="round"/>
</svg>
