<svg width="21" height="24" viewBox="0 0 21 24" fill="none" xmlns="http://www.w3.org/2000/svg">
<path d="M14.1968 21.1837L12.0693 19.0562L10.9111 20.2144L14.1968 23.5001L20.7682 16.9287L19.61 15.7705L14.1968 21.1837Z" fill="#383838"/>
<path d="M16.6609 2.96428H14.1967V2.14285C14.1954 1.70754 14.0219 1.29043 13.714 0.982616C13.4062 0.674803 12.9891 0.5013 12.5538 0.5H5.9824C5.54709 0.5013 5.12998 0.674803 4.82217 0.982616C4.51436 1.29043 4.34085 1.70754 4.33955 2.14285V2.96428H1.87527C1.43996 2.96558 1.02285 3.13908 0.715038 3.44689C0.407225 3.75471 0.233722 4.17182 0.232422 4.60713V21.8571C0.233722 22.2924 0.407225 22.7095 0.715038 23.0173C1.02285 23.3251 1.43996 23.4986 1.87527 23.4999H9.26811V21.8571H1.87527V4.60713H4.33955V7.07141H14.1967V4.60713H16.6609V13.6428H18.3038V4.60713C18.3025 4.17182 18.129 3.75471 17.8212 3.44689C17.5134 3.13908 17.0963 2.96558 16.6609 2.96428ZM12.5538 5.42856H5.9824V2.14285H12.5538V5.42856Z" fill="#383838"/>
</svg>
